<svg xmlns="http://www.w3.org/2000/svg" viewBox="1444.096 881 159.904 19">
  <defs>
    <style>
      .cls-1, .cls-2, .cls-5 {
        fill: none;
      }

      .cls-1 {
        stroke: #464646;
      }

      .cls-3, .cls-6 {
        fill: #464646;
      }

      .cls-3 {
        font-size: 14px;
        font-family: SegoeUI-Italic, Segoe UI;
        font-style: italic;
      }

      .cls-4, .cls-6 {
        stroke: none;
      }
    </style>
  </defs>
  <g id="Group_13" data-name="Group 13" transform="translate(261 51)">
    <g id="Group_11" data-name="Group 11" transform="translate(-112.4 -104)">
      <g id="Group_10" data-name="Group 10" transform="translate(1295.708 934)">
        <g id="Rectangle_29" data-name="Rectangle 29" class="cls-1" transform="translate(0)">
          <rect class="cls-4" width="26.823" height="18" rx="4"/>
          <rect class="cls-5" x="0.5" y="0.5" width="25.823" height="17" rx="3.5"/>
        </g>
        <g id="Path_4" data-name="Path 4" class="cls-2" transform="matrix(0.875, 0.485, -0.485, 0.875, 0.953, 1.777)">
          <path class="cls-4" d="M.511,0,15.092,1.215a.713.713,0,0,1,.613.639A.471.471,0,0,1,15.2,2.4L.616,1.187A.713.713,0,0,1,0,.548.471.471,0,0,1,.511,0Z"/>
          <path class="cls-6" d="M 15.24127292633057 2.402912139892578 C 15.22665023803711 2.402912139892578 15.21183109283447 2.402297973632813 15.19680213928223 2.401047229766846 L 0.6157717704772949 1.187467098236084 C 0.3060417473316193 1.161687135696411 0.03147174045443535 0.8753871321678162 0.002491740975528955 0.547987163066864 C -0.02508206479251385 0.2364830672740936 0.1796351969242096 2.142829998774687e-06 0.466352254152298 2.142829998774687e-06 C 0.4809741079807281 2.142829998774687e-06 0.4957932233810425 0.0006162212230265141 0.5108217597007751 0.001867142855189741 L 15.09185218811035 1.215447187423706 C 15.40158176422119 1.241227149963379 15.67615127563477 1.527527093887329 15.70513153076172 1.854927182197571 C 15.73271465301514 2.166431188583374 15.52799797058105 2.402912139892578 15.24127292633057 2.402912139892578 Z"/>
        </g>
        <g id="Path_6" data-name="Path 6" class="cls-2" transform="matrix(-0.875, -0.485, 0.485, -0.875, 25.379, 16.326)">
          <path class="cls-4" d="M.394,0,11.506,1.438a.665.665,0,0,1,.462.648c.019.327-.156.568-.392.538L.464,1.188A.665.665,0,0,1,0,.54C-.018.213.158-.028.394,0Z"/>
          <path class="cls-6" d="M 11.6160364151001 2.626454591751099 C 11.6029167175293 2.626454591751099 11.5895824432373 2.625597715377808 11.57604026794434 2.623847961425781 L 0.4638300538063049 1.188097834587097 C 0.2277900725603104 1.157597899436951 0.02077006548643112 0.867487907409668 0.001450065639801323 0.5401278734207153 C -0.01676148734986782 0.2315495312213898 0.1383119076490402 1.13410953872517e-06 0.3538641333580017 1.13410953872517e-06 C 0.3669837415218353 1.13410953872517e-06 0.3803177177906036 0.0008580139838159084 0.3938600718975067 0.002607892034575343 L 11.50607013702393 1.438357949256897 C 11.74211025238037 1.468857884407043 11.94913005828857 1.758967876434326 11.96844959259033 2.086327791213989 C 11.98666191101074 2.394906282424927 11.83158779144287 2.626454591751099 11.6160364151001 2.626454591751099 Z"/>
        </g>
        <g id="Path_5" data-name="Path 5" class="cls-2" transform="translate(26.875 3.795) rotate(150)">
          <path class="cls-4" d="M.612,1.292,15.145,0a.468.468,0,0,1,.508.542.714.714,0,0,1-.61.641L.51,2.474A.468.468,0,0,1,0,1.933.714.714,0,0,1,.612,1.292Z"/>
          <path class="cls-6" d="M 0.4631758034229279 2.476593971252441 C 0.1788160353899002 2.476593971252441 -0.02434481866657734 2.242429256439209 0.002361119026318192 1.93266499042511 C 0.03051111847162247 1.606034994125366 0.3035911321640015 1.319044947624207 0.6122910976409912 1.291654944419861 L 15.14511108398438 0.002104958985000849 C 15.16105079650879 0.0006906560738570988 15.17678356170654 -4.103431820112746e-06 15.1922664642334 -4.103431820112746e-06 C 15.4766263961792 -4.103431820112746e-06 15.67978668212891 0.2341607362031937 15.65308094024658 0.5439249873161316 C 15.62494087219238 0.8705549836158752 15.35186100006104 1.15754497051239 15.04316139221191 1.184934973716736 L 0.5103310942649841 2.474484920501709 C 0.4943911731243134 2.475899219512939 0.4786583781242371 2.476593971252441 0.4631758034229279 2.476593971252441 Z"/>
        </g>
        <g id="Path_7" data-name="Path 7" class="cls-2" transform="translate(0.295 14.264) rotate(-30)">
          <path class="cls-4" d="M.455,1.542,11.451,0c.234-.033.409.206.392.532a.666.666,0,0,1-.454.651l-11,1.539C.159,2.757-.016,2.519,0,2.192A.666.666,0,0,1,.455,1.542Z"/>
          <path class="cls-6" d="M 0.3503340184688568 2.727578401565552 C 0.1383570730686188 2.727578401565552 -0.0150486109778285 2.498833179473877 0.001176593475975096 2.192299842834473 C 0.01846659369766712 1.865639805793762 0.2218165993690491 1.574339747428894 0.4553865790367126 1.54164981842041 L 11.45119667053223 0.002999796764925122 C 11.46558094024658 0.0009866004111245275 11.4797477722168 1.085891767615976e-06 11.49365901947021 1.085891767615976e-06 C 11.7056360244751 1.085891767615976e-06 11.85904216766357 0.2287463694810867 11.84281635284424 0.5352798104286194 C 11.82553672790527 0.8619397878646851 11.62217617034912 1.153239846229553 11.38860702514648 1.185929775238037 L 0.3927966058254242 2.724579811096191 C 0.3784123063087463 2.726593017578125 0.36424520611763 2.727578401565552 0.3503340184688568 2.727578401565552 Z"/>
        </g>
      </g>
    </g>
    <text id="NCLoft_gmail.com" data-name="NCLoft@gmail.com" class="cls-3" transform="translate(1217 830)"><tspan x="0" y="15">NCLoft@gmail.com</tspan></text>
  </g>
</svg>
