<svg xmlns="http://www.w3.org/2000/svg" viewBox="1592 78 20 19">
  <defs>
    <style>
      .cls-1, .cls-3 {
        fill: none;
      }

      .cls-1 {
        stroke: #000;
        stroke-width: 2px;
      }

      .cls-2 {
        stroke: none;
      }
    </style>
  </defs>
  <g id="Group_1" data-name="Group 1" transform="translate(550 -62)">
    <g id="Ellipse_1" data-name="Ellipse 1" class="cls-1" transform="translate(1046.507 140)">
      <ellipse class="cls-2" cx="5.493" cy="5.029" rx="5.493" ry="5.029"/>
      <ellipse class="cls-3" cx="5.493" cy="5.029" rx="4.493" ry="4.029"/>
    </g>
    <g id="Rectangle_2" data-name="Rectangle 2" class="cls-1" transform="translate(1042 150.059)">
      <path class="cls-2" d="M8.941,0h2.118A8.941,8.941,0,0,1,20,8.941v0a0,0,0,0,1,0,0H0a0,0,0,0,1,0,0v0A8.941,8.941,0,0,1,8.941,0Z"/>
      <path class="cls-3" d="M7.639,1h4.721A6.639,6.639,0,0,1,19,7.639v0a.3.3,0,0,1-.3.3H1.3a.3.3,0,0,1-.3-.3v0A6.639,6.639,0,0,1,7.639,1Z"/>
    </g>
  </g>
</svg>
