<svg xmlns="http://www.w3.org/2000/svg" viewBox="372.5 877 24.999 25">
  <defs>
    <style>
      .cls-1 {
        fill: #44619d;
      }
    </style>
  </defs>
  <path id="Subtraction_1" data-name="Subtraction 1" class="cls-1" d="M-274.414-25.5H-283a5.006,5.006,0,0,1-5-5v-15a5.006,5.006,0,0,1,5-5h15a5.005,5.005,0,0,1,5,5v15a5.005,5.005,0,0,1-5,5h-2.569v-9.176h2.857v-2.844h-2.857v-1.33c0-1.337.624-2.014,1.856-2.014a3.917,3.917,0,0,1,1.428.292v-3a6.673,6.673,0,0,0-1.953-.245,5.33,5.33,0,0,0-3.785,1.307,4.518,4.518,0,0,0-1.391,3.443v1.55h-2.1v2.844h2.1V-25.5Z" transform="translate(660.5 927.5)"/>
</svg>
